<svg width="24" height="24" viewBox="0 0 24 24" fill="none" xmlns="http://www.w3.org/2000/svg">
<path d="M8.53333 2.37333L7.92 4.21333H2.56C2.4 4.21333 2.26667 4.27556 2.16 4.4C2.05333 4.50667 2 4.63111 2 4.77333V5.89333C2 6.03556 2.05333 6.16889 2.16 6.29333C2.26667 6.4 2.4 6.45333 2.56 6.45333H21.44C21.6 6.45333 21.7333 6.4 21.84 6.29333C21.9467 6.16889 22 6.03556 22 5.89333V4.77333C22 4.63111 21.9467 4.50667 21.84 4.4C21.7333 4.27556 21.6 4.21333 21.44 4.21333H16.08L15.4667 2.37333C15.4311 2.26667 15.36 2.17778 15.2533 2.10667C15.1644 2.03556 15.0578 2 14.9333 2H9.06667C8.94222 2 8.82667 2.03556 8.72 2.10667C8.63111 2.17778 8.56889 2.26667 8.53333 2.37333ZM19.7867 8.10667L18.7467 20.9867C18.7111 21.2711 18.5867 21.5111 18.3733 21.7067C18.1778 21.9022 17.9378 22 17.6533 22H6.37333C6.08889 22 5.84 21.9022 5.62667 21.7067C5.41333 21.5111 5.28889 21.2711 5.25333 20.9867L4.21333 8.10667H19.7867ZM8.66667 12.56V16.9867C8.66667 17.1467 8.72 17.28 8.82667 17.3867C8.93333 17.4933 9.06667 17.5467 9.22667 17.5467H9.78667C9.92889 17.5467 10.0533 17.4933 10.16 17.3867C10.2844 17.28 10.3467 17.1467 10.3467 16.9867V12.56C10.3467 12.4 10.2844 12.2667 10.16 12.16C10.0533 12.0533 9.92889 12 9.78667 12H9.22667C9.06667 12 8.93333 12.0533 8.82667 12.16C8.72 12.2667 8.66667 12.4 8.66667 12.56ZM14.2133 12C14.0711 12 13.9467 12.0533 13.84 12.16C13.7333 12.2667 13.68 12.4 13.68 12.56V16.9867C13.68 17.1467 13.7333 17.28 13.84 17.3867C13.9467 17.4933 14.0711 17.5467 14.2133 17.5467H14.7733C14.9333 17.5467 15.0667 17.4933 15.1733 17.3867C15.28 17.28 15.3333 17.1467 15.3333 16.9867V12.56C15.3333 12.4 15.28 12.2667 15.1733 12.16C15.0667 12.0533 14.9333 12 14.7733 12H14.2133Z" fill="white"/>
</svg>
