<svg width="461" height="102" viewBox="0 0 461 102" fill="none" xmlns="http://www.w3.org/2000/svg">
<path d="M21.376 0V99.84H0V0H21.376ZM14.848 48.64L59.648 0H86.272L14.72 74.624L14.848 48.64ZM29.696 49.664L46.592 35.584L88.192 99.84H61.184L29.696 49.664Z" fill="white"/>
<path d="M113.715 101.632C109.278 101.632 105.224 100.779 101.555 99.072C97.971 97.3653 95.1123 94.8907 92.979 91.648C90.8457 88.32 89.779 84.4373 89.779 80C89.779 74.7093 91.1443 70.016 93.875 65.92C96.6057 61.7387 100.574 58.496 105.779 56.192C111.07 53.888 117.256 52.736 124.339 52.736H133.939V50.688C133.939 47.36 132.744 44.7147 130.355 42.752C128.051 40.7893 124.936 39.808 121.011 39.808C118.11 39.808 115.464 40.4907 113.075 41.856C110.771 43.136 108.766 45.056 107.059 47.616L92.979 37.888C96.3923 32.768 100.574 28.928 105.523 26.368C110.558 23.7227 116.36 22.4 122.931 22.4C129.075 22.4 134.579 23.5947 139.443 25.984C144.307 28.3733 148.062 31.744 150.707 36.096C153.352 40.448 154.675 45.4827 154.675 51.2V99.84H133.939V91.136H133.171C131.635 94.5493 129.118 97.152 125.619 98.944C122.206 100.736 118.238 101.632 113.715 101.632ZM119.987 84.608C122.547 84.608 124.894 84.224 127.027 83.456C129.16 82.6027 130.824 81.3653 132.019 79.744C133.299 78.1227 133.939 76.2027 133.939 73.984V69.632H128.691C122.718 69.632 118.238 70.4 115.251 71.936C112.35 73.472 110.899 75.6907 110.899 78.592C110.899 80.5547 111.667 82.048 113.203 83.072C114.739 84.096 117 84.608 119.987 84.608Z" fill="white"/>
<path d="M192.269 80.64H226.189V100.096H164.877V85.12L197.133 43.648H165.645V24.192H224.525V39.168L192.269 80.64Z" fill="white"/>
<path d="M301.896 24.192V99.84H281.288V90.24H280.52C278.387 93.824 275.528 96.5973 271.944 98.56C268.445 100.608 264.349 101.632 259.656 101.632C252.061 101.632 246.088 99.2 241.736 94.336C237.469 89.472 235.336 82.6453 235.336 73.856V24.192H256.072V69.248C256.072 73.2587 257.096 76.4587 259.144 78.848C261.277 81.2373 264.093 82.432 267.592 82.432C270.323 82.432 272.712 81.8347 274.76 80.64C276.808 79.4453 278.387 77.7813 279.496 75.648C280.691 73.4293 281.288 70.8693 281.288 67.968V24.192H301.896Z" fill="white"/>
<path d="M317.101 99.84V0H337.837V34.176H338.477C340.61 30.5067 343.512 27.648 347.181 25.6C350.85 23.4667 354.989 22.4 359.597 22.4C367.277 22.4 373.208 24.8747 377.389 29.824C381.57 34.688 383.661 41.6427 383.661 50.688V99.84H363.053V55.296C363.053 51.2 361.986 47.9573 359.853 45.568C357.805 43.1787 355.032 41.984 351.533 41.984C348.717 41.984 346.285 42.5813 344.237 43.776C342.189 44.9707 340.61 46.6773 339.501 48.896C338.392 51.1147 337.837 53.7173 337.837 56.704V99.84H317.101Z" fill="white"/>
<path d="M419.09 101.632C414.653 101.632 410.599 100.779 406.93 99.072C403.346 97.3653 400.487 94.8907 398.354 91.648C396.221 88.32 395.154 84.4373 395.154 80C395.154 74.7093 396.519 70.016 399.25 65.92C401.981 61.7387 405.949 58.496 411.154 56.192C416.445 53.888 422.631 52.736 429.714 52.736H439.314V50.688C439.314 47.36 438.119 44.7147 435.73 42.752C433.426 40.7893 430.311 39.808 426.386 39.808C423.485 39.808 420.839 40.4907 418.45 41.856C416.146 43.136 414.141 45.056 412.434 47.616L398.354 37.888C401.767 32.768 405.949 28.928 410.898 26.368C415.933 23.7227 421.735 22.4 428.306 22.4C434.45 22.4 439.954 23.5947 444.818 25.984C449.682 28.3733 453.437 31.744 456.082 36.096C458.727 40.448 460.05 45.4827 460.05 51.2V99.84H439.314V91.136H438.546C437.01 94.5493 434.493 97.152 430.994 98.944C427.581 100.736 423.613 101.632 419.09 101.632ZM425.362 84.608C427.922 84.608 430.269 84.224 432.402 83.456C434.535 82.6027 436.199 81.3653 437.394 79.744C438.674 78.1227 439.314 76.2027 439.314 73.984V69.632H434.066C428.093 69.632 423.613 70.4 420.626 71.936C417.725 73.472 416.274 75.6907 416.274 78.592C416.274 80.5547 417.042 82.048 418.578 83.072C420.114 84.096 422.375 84.608 425.362 84.608Z" fill="white"/>
</svg>
