<svg width="24" height="24" viewBox="0 0 24 24" fill="none" xmlns="http://www.w3.org/2000/svg">
<path d="M7.37278 2.23513C7.12015 2.02138 6.83833 1.95336 6.52741 2.03109C6.21649 2.10882 5.98309 2.29343 5.82763 2.58492C5.67216 2.85698 5.66254 3.14846 5.79857 3.45939L5.88604 3.63428L11.9783 12L5.88604 20.3657L5.79857 20.5406C5.64311 20.8515 5.64311 21.1527 5.79857 21.4442C5.95403 21.7163 6.18713 21.8912 6.49805 21.9689C6.80897 22.0466 7.10072 21.9786 7.37278 21.7649L17.6332 13.4283C17.9247 13.1951 18.1286 12.9036 18.2452 12.5538C18.3423 12.1846 18.3423 11.8251 18.2452 11.4753C18.1286 11.1255 17.9247 10.834 17.6332 10.6009L7.37278 2.23513Z" fill="white"/>
</svg>
