<svg width="24" height="24" viewBox="0 0 24 24" fill="none" xmlns="http://www.w3.org/2000/svg">
<path d="M16.6272 2.23513C16.8798 2.02138 17.1617 1.95336 17.4726 2.03109C17.7835 2.10882 18.0169 2.29343 18.1724 2.58492C18.3278 2.85698 18.3375 3.14846 18.2014 3.45939L18.114 3.63428L12.0217 12L18.114 20.3657L18.2014 20.5406C18.3569 20.8515 18.3569 21.1527 18.2014 21.4442C18.046 21.7163 17.8129 21.8912 17.5019 21.9689C17.191 22.0466 16.8993 21.9786 16.6272 21.7649L6.36683 13.4283C6.07534 13.1951 5.87141 12.9036 5.75482 12.5538C5.65766 12.1846 5.65766 11.8251 5.75482 11.4753C5.87141 11.1255 6.07534 10.834 6.36683 10.6009L16.6272 2.23513Z" fill="white"/>
</svg>
