<svg width="24" height="24" viewBox="0 0 24 24" fill="none" xmlns="http://www.w3.org/2000/svg">
<path d="M19.9855 2C20.5451 2 21.0167 2.19984 21.4004 2.59952C21.8001 2.98321 22.0001 3.45484 22.0001 4.01439V19.9856C22.0001 20.5292 21.8001 21.0008 21.4004 21.4005C21.0167 21.8002 20.5451 22 19.9855 22H4.01444C3.47088 22 2.99924 21.8002 2.59956 21.4005C2.19988 21.0008 1.99994 20.5292 1.99994 19.9856V4.01439C1.99994 3.45484 2.19988 2.98321 2.59956 2.59952C2.99924 2.19984 3.47088 2 4.01444 2H19.9855ZM10.0815 7.01199H7.61154L4.01444 16.988H6.26862L7.01204 14.7098H10.5851L11.3045 16.988H13.6067L10.0815 7.01199ZM16.9879 9.50599C16.5723 9.50599 16.1087 9.56195 15.5971 9.67386C15.1495 9.7538 14.7178 9.89768 14.3021 10.1055V11.7122L14.5419 11.5683C15.2294 11.1527 15.9569 10.9448 16.7242 10.9448C17.5876 10.9448 18.0192 11.3605 18.0192 12.1918L15.8369 12.4796C14.3501 12.7354 13.6067 13.5268 13.6067 14.8537C13.6067 15.5092 13.8066 16.0288 14.2062 16.4125C14.6219 16.7962 15.1654 16.988 15.8369 16.988C16.7801 16.988 17.4916 16.5883 17.9712 15.789H18.0192V16.988H19.9855V12.2878C19.9056 10.4333 18.9064 9.50599 16.9879 9.50599ZM18.0192 13.4149V13.9185V14.0863C18.0032 14.454 17.8673 14.7738 17.6115 15.0456C17.3077 15.3493 16.9561 15.5012 16.5564 15.5012C16.2686 15.5012 16.0208 15.4213 15.813 15.2614C15.6211 15.0855 15.5251 14.8697 15.5251 14.6139C15.5251 14.0703 15.8529 13.7346 16.5084 13.6067L18.0192 13.4149ZM8.81053 8.71463C8.82652 8.97042 8.86648 9.21823 8.93043 9.45803L8.95446 9.60192L10.0815 13.0552H7.46761L8.59476 9.57794L8.6427 9.36211C8.67467 9.26619 8.70659 9.1223 8.73857 8.93046L8.76259 8.71463H8.81053Z" fill="white"/>
</svg>
